<svg id="Capa_1" data-name="Capa 1" xmlns="http://www.w3.org/2000/svg" viewBox="0 0 316.51 310.64"><title>23</title><path d="M641.78,381.11c-25.48-39.52-48.34-74.47-66.31-101.91-21.23-31-29.07-37.23-64.35-40.83V224H636.55v14.37c-29.39,3.6-28.74,8.49-22.21,20.25,15.35,25.16,33.32,51.94,55.21,84.28L680,358.58c27.44,41.48,54.55,82.31,79,117.91,22.21,33.32,34.3,41.16,68.6,44.43v13.72H692.74V520.92c30.7-4.25,33.31-9.15,24.49-24.5C706.62,480.5,687,449,657.08,403.49Z" transform="translate(-511.12 -224)"/></svg>